Mono16condensed.sfdir
StartChar: zero
Encoding: 48 48 70
Width: 896
VWidth: 0
Flags: W
HStem: -16 120<333.851 562.149> 640 128<384 512> 1304 120<333.851 562.149>
VStem: 128 128<190.118 1217.88> 384 128<640 768> 640 128<190.118 1217.88>
CounterMasks: 1 fc
LayerCount: 5
Back
Fore
SplineSet
448 1424 m 0
 572 1424 726 1343 760 1139 c 0
 768 1091 768 1057 768 976 c 2
 768 432 l 2
 768 351 768 317 760 269 c 0
 726 65 572 -16 448 -16 c 0
 324 -16 170 65 136 269 c 0
 128 317 128 351 128 432 c 2
 128 976 l 2
 128 1057 128 1091 136 1139 c 0
 170 1343 324 1424 448 1424 c 0
448 1304 m 0
 377 1304 286 1257 262 1121 c 0
 256 1087 256 1028 256 976 c 2
 256 432 l 2
 256 380 256 321 262 287 c 0
 286 151 377 104 448 104 c 0
 519 104 610 151 634 287 c 0
 640 321 640 380 640 432 c 2
 640 976 l 2
 640 1028 640 1087 634 1121 c 0
 610 1257 519 1304 448 1304 c 0
384 768 m 1
 512 768 l 1
 512 640 l 1
 384 640 l 1
 384 768 l 1
EndSplineSet
Layer: 2
SplineSet
576 1492 m 0
 617.450591796 1492 658.827514353 1480.85798434 694.750753164 1460.17774079 c 0
 730.673991975 1439.49749723 760.947598833 1409.38800221 782.803326276 1374.16757152 c 0
 804.65905372 1338.94714083 818.044903209 1298.87844519 824.862689374 1257.99239191 c 0
 831.68047554 1217.10633864 832 1175.4505918 832 1134 c 2
 832 402 l 2
 832 360.549408204 831.68047554 318.893661356 824.862689374 278.007608085 c 0
 818.044903209 237.121554814 804.65905372 197.05285917 782.803326276 161.832428477 c 0
 760.947598833 126.611997785 730.673991975 96.5025027698 694.750753164 75.8222592125 c 0
 658.827514353 55.1420156551 617.450591796 43.9999999999 576 44 c 0
 534.549408204 44 493.172485647 55.1420156553 457.249246836 75.8222592127 c 0
 421.326008025 96.5025027701 391.052401167 126.611997785 369.196673724 161.832428478 c 0
 347.34094628 197.05285917 333.955096791 237.121554815 327.137310626 278.007608085 c 0
 320.31952446 318.893661356 320 360.549408204 320 402 c 2
 320 1134 l 2
 320 1175.4505918 320.31952446 1217.10633864 327.137310626 1257.99239191 c 0
 333.955096791 1298.87844519 347.34094628 1338.94714083 369.196673724 1374.16757152 c 0
 391.052401167 1409.38800222 421.326008025 1439.49749723 457.249246836 1460.17774079 c 0
 493.172485647 1480.85798434 534.549408204 1492 576 1492 c 0
  Spiro
    576 1492 o
    832 1134 [
    832 402 ]
    576 44 o
    320 402 [
    320 1134 ]
    0 0 z
  EndSpiro
EndSplineSet
Layer: 3
Layer: 4
EndChar
StartChar: four
Encoding: 52 52 74
Width: 896
VWidth: 0
Flags: W
HStem: 0 21G<640 768> 388 120<259 640 768 896> 1388 20G<261.131 392 640 768>
VStem: 640 128<0 388 508 1408>
LayerCount: 5
Back
SplineSet
1024 448 m 29
 174 448 l 29
 384 1408 l 1053
832 0 m 29
 832 1408 l 1053
EndSplineSet
Fore
SplineSet
768 0 m 1
 640 0 l 1
 640 388 l 1
 128 388 l 1
 128 460 l 1
 264 1408 l 1
 392 1408 l 1
 259 508 l 1
 640 508 l 1
 640 1408 l 1
 768 1408 l 1
 768 508 l 1
 896 508 l 1
 896 388 l 1
 768 388 l 1
 768 0 l 1
EndSplineSet
Layer: 2
Layer: 3
Layer: 4
EndChar
StartChar: five
Encoding: 53 53 75
Width: 896
VWidth: 0
Flags: W
HStem: -16 120<201.825 595.054> 792 120<341.43 594.687> 1288 120<256 768>
VStem: 128 128<796 1288> 672 128<188.097 709.475>
LayerCount: 5
Back
SplineSet
167.890625 71.0380859375 m 5
 208.109375 184.9609375 l 5
 275.931640625 163.916992188 343.87890625 144.865234375 412.12890625 129.299804688 c 4
 474.208984375 115.140625 533.663085938 104.03515625 590.041992188 104 c 4
 628.7109375 103.9765625 664.223632812 110.39453125 692.526367188 124.76171875 c 4
 712.927734375 135.118164062 731.725585938 150.708007812 746.329101562 169.798828125 c 4
 761.043945312 189.03515625 772.541992188 212.948242188 780.3671875 239.16796875 c 4
 798.7421875 300.73046875 798.982421875 372.155273438 800.004882812 448.75 c 4
 800.766601562 505.810546875 801.431640625 559.8359375 793.717773438 609.678710938 c 4
 786.181640625 658.3671875 768.12890625 702.77734375 740.506835938 732.844726562 c 4
 722.609375 752.326171875 699.620117188 767.63671875 674.634765625 777.337890625 c 4
 649.349609375 787.155273438 621.05078125 791.962890625 591.913085938 792 c 4
 551.075195312 792.051757812 509.885742188 782.952148438 472.818359375 765.426757812 c 4
 433.793945312 746.9765625 398.6796875 718.327148438 372.712890625 682.97265625 c 5
 256 717 l 5
 256 1348 l 5
 320 1408 l 5
 896 1408 l 5
 896 1288 l 5
 384 1288 l 5
 384 856.076171875 l 5
 393.446289062 861.60546875 404.6328125 867.584960938 415.181640625 872.572265625 c 4
 470.247070312 898.607421875 531.012695312 912.078125 592.086914062 912 c 4
 635.919921875 911.944335938 680.876953125 904.798828125 723.61328125 888.206054688 c 4
 766.651367188 871.494140625 806.0234375 845.41015625 837.493164062 811.15625 c 4
 886.830078125 757.452148438 910.52734375 690.639648438 920.391601562 626.911132812 c 4
 930.076171875 564.337890625 928.750976562 503.93359375 927.995117188 447.249023438 c 4
 927 372.666992188 928.5 290.145507812 903.6328125 206.831054688 c 4
 892.594726562 169.849609375 875.704101562 133.014648438 850.344726562 99.8642578125 c 4
 824.874023438 66.5673828125 791.884765625 38.7373046875 753.473632812 19.23828125 c 4
 700.215820312 -7.796875 642.755859375 -16.0322265625 589.958007812 -16 c 4
 516.157226562 -15.9541015625 446.7109375 -2.087890625 381.87109375 12.7001953125 c 4
 309.28125 29.255859375 238.03515625 49.2744140625 167.890625 71.0380859375 c 5
EndSplineSet
Fore
SplineSet
128 170 m 1
 226 141 359 104 462 104 c 0
 653 104 672 260 672 449 c 0
 672 526 672 608 652 663 c 0
 614 766 537 792 464 792 c 0
 366 792 290 744 245 683 c 1
 128 717 l 1
 128 1408 l 1
 768 1408 l 1
 768 1288 l 1
 256 1288 l 1
 256 1124 256 960 256 796 c 1
 266 796 l 1
 325 864 386 912 484 912 c 0
 605 912 683 859 737 781 c 0
 799 691 800 579 800 447 c 0
 800 318 790 200 738 122 c 0
 682 38 599 -16 462 -16 c 0
 349 -16 229 17 128 45 c 1
 128 170 l 1
EndSplineSet
Layer: 2
SplineSet
592 852 m 4
 569.874950019 852 547.708987409 850.270562295 526 846 c 4
 485.669098677 838.066160283 447.076701406 820.262547848 416.241313788 793.083396194 c 4
 385.40592617 765.904244539 362.748306891 730.14912327 348.306511624 691.665854651 c 4
 319.422921089 614.699317412 319.999999999 530.20772261 320 448 c 4
 320 365.79227739 319.422921091 281.300682587 348.306511626 204.334145348 c 4
 362.748306893 165.850876729 385.405926172 130.09575546 416.241313789 102.916603806 c 4
 447.076701407 75.7374521517 485.669098677 57.9338397167 526 50 c 4
 547.708987409 45.7294377049 569.874950019 44 592 44 c 4
 614.125049981 44 636.291012591 45.7294377049 658 50 c 4
 698.330901323 57.9338397167 736.923298594 75.7374521519 767.758686212 102.916603806 c 4
 798.59407383 130.095755461 821.251693109 165.85087673 835.693488376 204.334145349 c 4
 864.577078911 281.300682588 864.000000001 365.79227739 864 448 c 4
 864 530.20772261 864.577078909 614.699317413 835.693488374 691.665854652 c 4
 821.251693107 730.149123271 798.594073828 765.90424454 767.758686211 793.083396194 c 4
 736.923298593 820.262547848 698.330901323 838.066160283 658 846 c 4
 636.291012591 850.270562295 614.125049981 852 592 852 c 4
  Spiro
    592 852 o
    526 846 o
    320 448 o
    526 50 o
    592 44 o
    658 50 o
    864 448 o
    658 846 o
    0 0 z
  EndSpiro
EndSplineSet
Layer: 3
SplineSet
592 852 m 0
 541.044412231 852.064572582 490.06628348 840.780119853 444 819 c 0
 395.114545029 795.886977027 352.009337263 760.582127836 320 717 c 1
 320 1344 l 1
 896 1344 l 1
 1254 867 l 1
 188 128 l 1
 256.9832888 106.595441015 326.580513009 87.0606703136 397 71 c 0
 460.460079435 56.5265714443 524.91036818 44.0405660285 590 44 c 0
 635.733671888 43.971497251 682.219553902 51.2991600935 723 72 c 0
 752.406637576 86.9273035217 778.299863741 108.637763448 798.336743045 134.831239576 c 0
 818.37362235 161.024715705 832.567915771 191.399200784 842 223 c 0
 863.621048561 295.438116312 862.991426408 372.410759925 864 448 c 0
 864.758837055 504.87231624 865.753677476 562.087025231 857.05428616 618.295181035 c 0
 848.354894845 674.50333684 827.479228702 730.114618938 789 772 c 0
 764.31687897 798.868052323 733.135295531 819.565543469 699.124306827 832.771653678 c 0
 665.113318124 845.977763887 628.484881276 851.953765169 592 852 c 0
  Spiro
    592 852 o
    444 819 o
    320 717 v
    320 1344 v
    896 1344 v
    1254 867 v
    188 128 v
    397 71 o
    590 44 o
    723 72 o
    842 223 o
    864 448 o
    789 772 o
    0 0 z
  EndSpiro
EndSplineSet
Layer: 4
EndChar
StartChar: seven
Encoding: 55 55 77
Width: 896
VWidth: 0
Flags: W
HStem: 0 21G<235 370.586> 1288 120<98 663>
LayerCount: 5
Back
Fore
SplineSet
98 1288 m 1
 98 1408 l 1
 798 1408 l 1
 798 1318 l 1
 364 0 l 1
 235 0 l 1
 663 1278 l 1
 663 1288 l 1
 98 1288 l 1
EndSplineSet
Layer: 2
Layer: 3
Layer: 4
EndChar
StartChar: at
Encoding: 64 64 86
Width: 896
VWidth: 0
Flags: W
HStem: 0 120<155.968 896> 368 120<448.403 674.068> 896 110<450.102 768> 1288 120<155.968 740.5>
VStem: 0 128<147.5 1260.5> 256 128<553.682 827.733> 768 128<384 507 577.507 896 1006 1260.21>
LayerCount: 5
Back
SplineSet
768 512 m 5xbc
 572 512 l 6
 517 512 459 512 408 458 c 4
 372 420 352 362 352 303 c 4
 352 194 425 104 532 104 c 4
 638 104 715 162 746 235 c 4
 768 287 768 349 768 421 c 6
 768 512 l 5xbc
608 1040 m 4
 704 1040 805 1021 866 913 c 4
 896 860 896 785 896 749 c 6
 896 0 l 5
 768 0 l 5x7c
 768 123 l 5
 758 123 l 5
 694 35 617 -16 508 -16 c 4
 455 -16 347 10 283 106 c 4
 249 157 224 224 224 301 c 4
 224 383 249 470 312 533 c 4
 402 622 512 622 574 622 c 6
 768 622 l 5
 768 744 l 6
 768 788 768 831 750 862 c 4
 729 898 696 920 608 920 c 4
 549 920 418 906 320 891 c 5
 320 1013 l 5
 417 1027 545 1040 608 1040 c 4
EndSplineSet
Fore
SplineSet
768 896 m 1
 604 896 l 2
 549 896 491 896 440 842 c 0
 404 804 384 746 384 687 c 0
 384 578 457 488 564 488 c 0
 654 488 716 548 746 619 c 0
 768 671 768 733 768 805 c 2
 768 896 l 1
304 1288 m 0
 183 1288 128 1268 128 1128 c 2
 128 280 l 2
 128 140 183 120 304 120 c 0
 402 120 837 120 896 120 c 1
 896 0 l 1
 833 0 388 0 291 0 c 0
 255 0 180 0 127 30 c 0
 19 91 0 192 0 288 c 2
 0 1120 l 2
 0 1216 19 1317 127 1378 c 0
 180 1408 255 1408 291 1408 c 0
 388 1408 545 1408 608 1408 c 0
 704 1408 805 1389 866 1281 c 0
 896 1228 896 1153 896 1117 c 2
 896 384 l 1
 768 384 l 1
 768 507 l 1
 758 507 l 1
 702 419 635 368 540 368 c 0
 487 368 379 394 315 490 c 0
 281 541 256 608 256 685 c 0
 256 767 281 854 344 917 c 0
 434 1006 544 1006 606 1006 c 2
 768 1006 l 1
 768 1112 l 2
 768 1233 748 1288 608 1288 c 0
 549 1288 402 1288 304 1288 c 0
EndSplineSet
Layer: 2
Layer: 3
Layer: 4
EndChar
StartChar: D
Encoding: 68 68 32
Width: 896
VWidth: 0
Flags: W
HStem: 0 120<128 553.496> 1288 120<128 552.764>
VStem: 0 128<120 1288> 768 128<352.628 1040.49>
LayerCount: 5
Back
Fore
SplineSet
360 1408 m 6
 464 1408 572 1378 663 1317 c 4
 766 1247 833 1137 867 1008 c 4
 894 905 896 803 896 704 c 4
 896 605 893 503 867 400 c 4
 834 271 764 163 663 91 c 4
 574 27 465 0 360 0 c 4
 245 0 141 0 0 0 c 1
 0 1408 l 1
 360 1408 l 6
360 120 m 6
 521 120 620 189 685 278 c 5
 756 384 768 525 768 704 c 4
 768 800 764 893 742 982 c 4
 700 1155 581 1288 360 1288 c 4
 258 1288 219 1288 128 1288 c 1
 128 120 l 1
 360 120 l 6
EndSplineSet
Layer: 2
Layer: 3
Layer: 4
EndChar
StartChar: V
Encoding: 86 86 49
Width: 896
VWidth: 0
Flags: W
HStem: 0 119<426.876 469.124> 1388 20G<15 170 726 881>
VStem: 15 135<1019.41 1408> 746 135<1019.41 1408>
LayerCount: 5
Back
Fore
SplineSet
15 1408 m 5
 150 1408 l 5
 190 900 268 468 443 119 c 1
 453 119 l 1
 628 468 706 900 746 1408 c 1
 881 1408 l 1
 841 912 758 437 508 0 c 1
 388 0 l 1
 138 437 55 912 15 1408 c 5
EndSplineSet
Layer: 2
Layer: 3
Layer: 4
EndChar
StartChar: X
Encoding: 88 88 51
Width: 896
VWidth: 0
Flags: W
HStem: 0 21G<11 168.498 727.502 885> 1388 20G<43 198.815 697.185 853>
LayerCount: 5
Back
Fore
SplineSet
443 834 m 1
 453 834 l 1
 706 1408 l 1
 853 1408 l 1
 532 721 l 1
 532 711 l 1
 885 0 l 1
 737 0 l 1
 453 598 l 1
 443 598 l 1
 159 0 l 5
 11 0 l 5
 364 711 l 1
 364 721 l 1
 43 1408 l 5
 190 1408 l 5
 443 834 l 1
EndSplineSet
Layer: 2
Layer: 3
Layer: 4
EndChar
StartChar: Y
Encoding: 89 89 52
Width: 896
VWidth: 0
Flags: W
HStem: 0 21G<384 512> 1388 20G<5 161 735 891>
VStem: 5 135<1193.04 1408> 384 128<0 616.285> 756 135<1193.04 1408>
CounterMasks: 1 38
LayerCount: 5
Back
Fore
SplineSet
5 1408 m 5
 140 1408 l 5
 182 1127 262 888 443 695 c 1
 453 695 l 1
 634 888 714 1127 756 1408 c 1
 891 1408 l 1
 851 1116 766 837 512 580 c 1
 512 0 l 1
 384 0 l 1
 384 580 l 1
 130 837 45 1116 5 1408 c 5
EndSplineSet
Layer: 2
Layer: 3
Layer: 4
EndChar
StartChar: j
Encoding: 106 106 10
Width: 896
VWidth: 0
Flags: W
HStem: -528 120<130.703 451.284> 898 126<256 512> 1328 224<453.032 634.968>
VStem: 432 224<1349.03 1530.97> 512 128<-347.771 898>
LayerCount: 5
Back
Fore
SplineSet
544 1552 m 0xf0
 610 1552 656 1506 656 1440 c 0
 656 1374 610 1328 544 1328 c 0
 478 1328 432 1374 432 1440 c 0
 432 1506 478 1552 544 1552 c 0xf0
128 -365 m 1
 183 -387 252 -408 320 -408 c 0
 387 -408 437 -384 469 -346 c 0
 512 -294 512 -230 512 -142 c 2
 512 898 l 1
 256 898 l 1
 256 1024 l 1
 640 1024 l 1
 640 -152 l 2xe8
 640 -243 640 -338 572 -420 c 0
 520 -483 436 -528 330 -528 c 0
 255 -528 188 -513 128 -493 c 1
 128 -365 l 1
EndSplineSet
Layer: 2
SplineSet
448 44 m 4
 598.8 44 704 -60.95 704 -212 c 4
 704 -363.05 598.8 -468 448 -468 c 4
 297.2 -468 192 -363.05 192 -212 c 4
 192 -60.95 297.2 44 448 44 c 4
EndSplineSet
Layer: 3
SplineSet
704 45 m 1
 704 -172 l 2
 704 -209.30175595 703.454831685 -246.92394934 695.223254122 -283.306117057 c 0
 686.99167656 -319.688284774 671.043396481 -354.533371494 647.203993415 -383.22315815 c 0
 623.364590348 -411.912944806 592.00622287 -434.113648541 557.420372628 -448.086477886 c 0
 522.739235077 -462.097803707 485.192168037 -467.986486026 447.729768683 -468.00009819 c 0
 405.278768715 -468.00009819 363.072771044 -460.733301726 322 -450 c 0
 286.585548448 -440.745353082 251.873601214 -428.871229546 218 -415 c 0
 185.834505443 -401.828239618 154.435909116 -386.785998568 124 -370 c 1
 704 45 l 1
  Spiro
    704 45 v
    704 -172 ]
    448 -468 o
    322 -450 o
    218 -415 o
    124 -370 v
    0 0 z
  EndSpiro
EndSplineSet
Layer: 4
EndChar
StartChar: v
Encoding: 118 118 1
Width: 896
VWidth: 0
Flags: W
HStem: 0 149<425.208 470.792> 1004 20G<73 223 673 823>
VStem: 73 135<707.003 1024> 688 135<707.003 1024>
LayerCount: 5
Back
Fore
SplineSet
73 1024 m 1
 208 1024 l 1
 238 679 314 386 443 149 c 1
 453 149 l 1
 582 386 658 679 688 1024 c 1
 823 1024 l 1
 792 663 705 318 508 0 c 1
 388 0 l 1
 191 318 104 663 73 1024 c 1
EndSplineSet
Layer: 2
SplineSet
64 1536 m 5
 640 20 l 5
 1216 1536 l 1029
EndSplineSet
Layer: 3
Layer: 4
EndChar
StartChar: bar
Encoding: 124 124 92
Width: 896
VWidth: 0
Flags: W
VStem: 384 128<-248 1660>
LayerCount: 5
Back
Fore
SplineSet
512 1660 m 5
 512 -248 l 5
 384 -248 l 5
 384 1660 l 5
 512 1660 l 5
EndSplineSet
Layer: 2
Layer: 3
Layer: 4
EndChar
StartChar: plusminus
Encoding: 177 177 293
Width: 896
VWidth: 0
Flags: W
HStem: 388 120<0 896> 900 120<0 384 512 896>
VStem: 384 128<640 900 1020 1280>
LayerCount: 5
Back
Fore
SplineSet
0 508 m 5
 896 508 l 5
 896 388 l 5
 0 388 l 5
 0 508 l 5
512 1020 m 5
 896 1020 l 5
 896 900 l 5
 512 900 l 5
 512 640 l 5
 384 640 l 5
 384 900 l 5
 0 900 l 5
 0 1020 l 5
 384 1020 l 5
 384 1280 l 5
 512 1280 l 5
 512 1020 l 5
EndSplineSet
Layer: 2
Layer: 3
Layer: 4
EndChar
StartChar: mu
Encoding: 181 181 292
Width: 896
VWidth: 0
Flags: W
HStem: -16 120<336.359 559.641> 0 21G<640 768> 1004 20G<128 256 640 768>
VStem: 128 128<-512 112 166.016 1024> 640 128<0 112 166.016 1024>
LayerCount: 5
Back
Fore
SplineSet
448 -16 m 0xb8
 380 -16 310 35 266 112 c 1
 256 112 l 1
 256 -512 l 5
 128 -512 l 5
 128 1024 l 1
 256 1024 l 1
 256 367 l 2
 256 280 256 218 301 166 c 0
 333 129 384 104 448 104 c 0xb8
 512 104 563 129 595 166 c 0
 640 218 640 280 640 367 c 2
 640 1024 l 1
 768 1024 l 1
 768 0 l 1
 640 0 l 1x78
 640 112 l 1
 630 112 l 1
 586 35 516 -16 448 -16 c 0xb8
EndSplineSet
Layer: 2
Layer: 3
Layer: 4
EndChar
StartChar: Agrave
Encoding: 192 192 97
Width: 896
VWidth: 0
Flags: W
HStem: 0 21G<5 145 751 891> 388 120<206 690> 1161 119<422.442 473.558> 1408 21G<385.031 536>
LayerCount: 5
Back
Refer: 27 96 N 1 0 0 1 136.371 522 2
Refer: 29 65 N 1 0 0 1 26 0 3
Fore
SplineSet
5 0 m 1
 46 451 131 882 388 1280 c 1
 508 1280 l 1
 765 882 850 451 891 0 c 5
 756 0 l 5
 746 136 733 265 716 388 c 5
 180 388 l 1
 163 265 150 136 140 0 c 1
 5 0 l 1
690 508 m 5
 639 752 565 970 453 1161 c 1
 443 1161 l 1
 331 970 257 752 206 508 c 1
 690 508 l 5
536 1408 m 1
 398 1408 l 1
 232 1664 l 1
 370 1664 l 1
 536 1408 l 1
EndSplineSet
Layer: 2
Layer: 3
Layer: 4
EndChar
StartChar: Ccedilla
Encoding: 199 199 108
Width: 896
VWidth: 0
Flags: W
HStem: -400 120<258.225 483.489> 1304 120<318.67 799.818>
VStem: -16 128<342.784 1065.21> 512 128<-233.261 -16>
LayerCount: 5
Back
Fore
SplineSet
640 -105 m 2
 640 -165 640 -235 588 -305 c 0
 546 -362 474 -400 384 -400 c 0
 349 -400 303 -393 256 -383 c 1
 256 -260 l 1
 304 -271 350 -280 384 -280 c 0
 431 -280 463 -263 484 -235 c 0
 512 -198 512 -155 512 -105 c 2
 512 -16 l 1
 413 -16 307 7 219 64 c 0
 118 129 47 237 15 364 c 0
 -14 478 -16 594 -16 704 c 0
 -16 814 -14 930 15 1044 c 0
 48 1171 118 1278 219 1344 c 0
 308 1402 415 1424 515 1424 c 0
 638 1424 757 1395 866 1367 c 1
 866 1243 l 1
 753 1272 627 1304 515 1304 c 0
 302 1304 184 1188 140 1016 c 0
 115 919 112 813 112 704 c 0
 112 595 115 489 140 392 c 0
 184 220 302 104 515 104 c 0
 637 104 775 142 896 173 c 1
 896 49 l 1
 816 28 730 5 640 -7 c 1
 640 -105 l 2
EndSplineSet
Layer: 2
Layer: 3
Layer: 4
EndChar
StartChar: Ntilde
Encoding: 209 209 118
Width: 896
VWidth: 0
Flags: W
HStem: 0 21G<0 128 755.647 896> 1412 120<495.658 628.749> 1540 120<267.276 400.342>
VStem: 0 128<0 1020> 125 128<1433 1533.1> 643 128<1539.78 1639> 768 128<260 1280>
LayerCount: 5
Back
Fore
SplineSet
128 0 m 1xf2
 0 0 l 1
 0 1280 l 1
 127 1280 l 1
 758 260 l 1
 768 260 l 1
 768 1280 l 1
 896 1280 l 1
 896 0 l 1
 768 0 l 1
 138 1020 l 1
 128 1020 l 1
 128 0 l 1xf2
320 1540 m 0
 269 1540 256 1481 253 1427 c 1
 125 1433 l 1
 129 1551 191 1660 320 1660 c 0
 466 1660 499 1532 576 1532 c 0
 627 1532 640 1591 643 1645 c 1
 771 1639 l 1xec
 768 1523 705 1412 576 1412 c 0
 430 1412 397 1540 320 1540 c 0
EndSplineSet
Layer: 2
Layer: 3
Layer: 4
EndChar
StartChar: Ocircumflex
Encoding: 212 212 121
Width: 896
VWidth: 0
Flags: W
HStem: -16 120<288.143 607.857> 1176 120<288.143 607.857> 1408 21G<72 256.585 639.415 824>
VStem: 0 128<298.492 981.508> 768 128<298.492 981.508>
LayerCount: 5
Back
Fore
SplineSet
128 640 m 4
 128 537 130 438 154 348 c 4
 192 206 287 104 448 104 c 4
 609 104 704 206 742 348 c 4
 766 438 768 537 768 640 c 4
 768 743 766 842 742 932 c 4
 704 1074 609 1176 448 1176 c 4
 287 1176 192 1074 154 932 c 4
 130 842 128 743 128 640 c 4
0 640 m 4
 0 744 1 853 30 962 c 4
 81 1153 225 1296 448 1296 c 4
 671 1296 815 1153 866 962 c 4
 895 853 896 744 896 640 c 4
 896 536 895 427 866 318 c 4
 815 127 671 -16 448 -16 c 4
 225 -16 81 127 30 318 c 4
 1 427 0 536 0 640 c 4
369 1664 m 1
 527 1664 l 1
 824 1408 l 1
 666 1408 l 1
 448 1572 l 1
 230 1408 l 1
 72 1408 l 1
 369 1664 l 1
EndSplineSet
Layer: 2
Layer: 3
Layer: 4
EndChar
StartChar: Ucircumflex
Encoding: 219 219 128
Width: 896
VWidth: 0
Flags: W
HStem: -16 120<276.736 619.179> 1408 21G<72 256.585 639.415 824>
VStem: 0 128<252.382 1280> 768 128<252.382 1280>
LayerCount: 5
Back
Fore
SplineSet
0 1280 m 1
 128 1280 l 1
 128 512 l 2
 128 437 128 378 140 330 c 0
 173 196 288 104 448 104 c 0
 608 104 723 196 756 330 c 0
 768 378 768 437 768 512 c 2
 768 1280 l 1
 896 1280 l 1
 896 512 l 2
 896 426 896 371 880 303 c 0
 836 118 669 -16 448 -16 c 0
 227 -16 59 118 16 303 c 0
 0 371 0 426 0 512 c 2
 0 1280 l 1
369 1664 m 1
 527 1664 l 1
 824 1408 l 1
 666 1408 l 1
 448 1572 l 1
 230 1408 l 1
 72 1408 l 1
 369 1664 l 1
EndSplineSet
Layer: 2
Layer: 3
Layer: 4
EndChar
StartChar: Yacute
Encoding: 221 221 130
Width: 896
VWidth: 0
Flags: W
HStem: 0 21G<384 512>
VStem: 5 135<1065.04 1280> 384 128<0 488.285> 756 135<1065.04 1280>
CounterMasks: 1 70
LayerCount: 5
Back
Fore
SplineSet
5 1280 m 5
 140 1280 l 5
 182 999 262 760 443 567 c 5
 453 567 l 5
 634 760 714 999 756 1280 c 5
 891 1280 l 5
 851 988 766 709 512 452 c 5
 512 0 l 5
 384 0 l 5
 384 452 l 5
 130 709 45 988 5 1280 c 5
360 1408 m 1
 498 1408 l 1
 664 1664 l 1
 526 1664 l 1
 360 1408 l 1
EndSplineSet
Layer: 2
Layer: 3
Layer: 4
EndChar
StartChar: edieresis
Encoding: 235 235 144
Width: 896
VWidth: 0
Flags: W
HStem: -16 120<322.263 762.041> 512 120<227 669> 920 120<318.155 577.845> 1200 224<133.032 314.968 581.032 762.968>
VStem: 96 128<210.579 512 632 813.92> 112 224<1221.03 1402.97> 560 224<1221.03 1402.97>
LayerCount: 5
Back
Fore
SplineSet
224 512 m 1xfa
 224 410 224 308 256 235 c 0
 292 152 357 104 458 104 c 0
 534 104 640 121 768 148 c 1
 768 25 l 1
 641 -1 541 -16 458 -16 c 0
 289 -16 183 78 136 193 c 0
 98 286 96 391 96 512 c 0
 96 633 98 734 136 829 c 0
 182 945 288 1040 448 1040 c 0
 608 1040 714 945 760 829 c 0
 798 734 800 633 800 512 c 1
 224 512 l 1xfa
669 632 m 1
 666 690 658 744 640 789 c 0
 608 868 544 920 448 920 c 0
 352 920 288 868 256 789 c 0
 238 744 230 690 227 632 c 1
 669 632 l 1
672 1424 m 0
 738 1424 784 1378 784 1312 c 0
 784 1246 738 1200 672 1200 c 0
 606 1200 560 1246 560 1312 c 0
 560 1378 606 1424 672 1424 c 0
224 1424 m 0
 290 1424 336 1378 336 1312 c 0xf6
 336 1246 290 1200 224 1200 c 0xfa
 158 1200 112 1246 112 1312 c 0xf6
 112 1378 158 1424 224 1424 c 0
EndSplineSet
Layer: 2
Layer: 3
Layer: 4
EndChar
StartChar: igrave
Encoding: 236 236 145
Width: 896
VWidth: 0
Flags: W
HStem: 0 120<128 384 512 768> 904 120<128 384> 1388 20G<232 382.969>
VStem: 384 128<120 904>
LayerCount: 5
Back
Fore
SplineSet
128 0 m 1
 128 120 l 1
 384 120 l 1
 384 904 l 1
 128 904 l 1
 128 1024 l 1
 512 1024 l 1
 512 120 l 1
 768 120 l 1
 768 0 l 1
 128 0 l 1
536 1152 m 1
 398 1152 l 1
 232 1408 l 1
 370 1408 l 1
 536 1152 l 1
EndSplineSet
Layer: 2
Layer: 3
Layer: 4
EndChar
StartChar: icircumflex
Encoding: 238 238 147
Width: 896
VWidth: 0
Flags: W
HStem: 0 120<128 384 512 768> 904 120<128 384> 1388 20G<345.797 550.203>
VStem: 384 128<120 904>
LayerCount: 5
Back
Fore
SplineSet
128 0 m 1
 128 120 l 1
 384 120 l 1
 384 904 l 1
 128 904 l 1
 128 1024 l 1
 512 1024 l 1
 512 120 l 1
 768 120 l 1
 768 0 l 1
 128 0 l 1
369 1408 m 1
 527 1408 l 1
 824 1152 l 1
 666 1152 l 1
 448 1316 l 1
 230 1152 l 1
 72 1152 l 1
 369 1408 l 1
EndSplineSet
Layer: 2
Layer: 3
Layer: 4
EndChar
StartChar: ntilde
Encoding: 241 241 150
Width: 896
VWidth: 0
Flags: W
HStem: 0 21G<128 256 640 768> 920 120<343.273 576.311> 1004 20G<128 256> 1156 120<495.658 628.749> 1284 120<267.276 400.342>
VStem: 128 128<0 857.984 912 1024 1177 1277.1> 640 128<0 854.076 1283.78 1383>
LayerCount: 5
Back
Fore
SplineSet
468 1040 m 0xde
 568 1040 649 995 699 933 c 0
 768 847 768 751 768 657 c 2
 768 0 l 1
 640 0 l 1
 640 657 l 2
 640 744 640 806 595 858 c 0
 563 895 512 920 448 920 c 0xde
 384 920 333 895 301 858 c 0
 256 806 256 744 256 657 c 2
 256 0 l 1
 128 0 l 1
 128 1024 l 1
 256 1024 l 1xbe
 256 912 l 1
 266 912 l 1
 315 989 392 1040 468 1040 c 0xde
320 1284 m 0
 269 1284 256 1225 253 1171 c 1
 125 1177 l 1
 129 1295 191 1404 320 1404 c 0
 466 1404 499 1276 576 1276 c 0
 627 1276 640 1335 643 1389 c 1
 771 1383 l 1
 768 1267 705 1156 576 1156 c 0
 430 1156 397 1284 320 1284 c 0
EndSplineSet
Layer: 2
Layer: 3
Layer: 4
EndChar
StartChar: cacute
Encoding: 263 263 174
Width: 896
VWidth: 0
Flags: W
HStem: -16 120<322.263 762.041> 920 120<322.263 762.041>
VStem: 96 128<209.809 814.191>
LayerCount: 5
Back
Fore
SplineSet
360 1152 m 1
 498 1152 l 1
 664 1408 l 1
 526 1408 l 1
 360 1152 l 1
96 512 m 0
 96 633 98 738 136 831 c 0
 183 946 289 1040 458 1040 c 0
 541 1040 641 1025 768 999 c 1
 768 876 l 1
 640 903 534 920 458 920 c 0
 357 920 292 872 256 789 c 0
 224 716 224 614 224 512 c 0
 224 410 224 308 256 235 c 0
 292 152 357 104 458 104 c 0
 534 104 640 121 768 148 c 1
 768 25 l 1
 641 -1 541 -16 458 -16 c 0
 289 -16 183 78 136 193 c 0
 98 286 96 391 96 512 c 0
EndSplineSet
Layer: 2
Layer: 3
Layer: 4
EndChar
StartChar: Ebreve
Encoding: 276 276 187
Width: 896
VWidth: 0
Flags: W
HStem: 0 120<256 896> 644 120<256 768> 1160 120<256 896> 1392 120<290.746 605.254>
VStem: 108 128<1563.69 1664> 128 128<120 644 764 1160> 660 128<1563.69 1664>
LayerCount: 5
Back
Fore
SplineSet
660 1664 m 1xfa
 788 1664 l 1
 788 1496 636 1392 448 1392 c 0
 260 1392 108 1496 108 1664 c 1
 236 1664 l 1
 236 1578 305 1512 448 1512 c 0
 591 1512 660 1578 660 1664 c 1xfa
128 1280 m 1xf6
 896 1280 l 1
 896 1160 l 1
 256 1160 l 1
 256 764 l 1
 768 764 l 1
 768 644 l 1
 256 644 l 1
 256 120 l 1
 896 120 l 1
 896 0 l 1
 128 0 l 1
 128 1280 l 1xf6
EndSplineSet
Layer: 2
Layer: 3
Layer: 4
EndChar
StartChar: gbreve
Encoding: 287 287 196
Width: 896
VWidth: 0
Flags: W
HStem: -528 120<132.158 549.227> -16 120<317.978 540.384> 920 120<317.978 540.384> 1004 20G<640 768> 1136 120<290.746 605.254> 1388 20G<108 236 660 788>
VStem: 96 128<213.326 810.674 1320.51 1408> 640 128<-309.979 125 212.637 811.363 899 1024> 660 128<1307.69 1408>
LayerCount: 5
Back
Fore
SplineSet
660 1408 m 1xce80
 788 1408 l 1
 788 1240 636 1136 448 1136 c 0
 260 1136 108 1240 108 1408 c 1
 236 1408 l 1
 236 1322 305 1256 448 1256 c 0
 591 1256 660 1322 660 1408 c 1xce80
412 1040 m 0xef
 495 1040 571 991 630 899 c 1
 640 899 l 1
 640 1024 l 1
 768 1024 l 1xdf
 768 -96 l 2
 768 -156 768 -267 707 -369 c 0
 652 -461 556 -528 408 -528 c 0
 315 -528 217 -506 128 -489 c 1
 128 -366 l 1
 216 -383 320 -408 408 -408 c 0
 504 -408 559 -369 596 -310 c 0
 640 -239 640 -143 640 -96 c 2
 640 125 l 1
 630 125 l 1
 571 33 495 -16 412 -16 c 0
 281 -16 171 71 124 221 c 0
 96 311 96 400 96 512 c 0
 96 624 96 713 124 803 c 0
 171 953 281 1040 412 1040 c 0xef
432 920 m 0xef
 336 920 276 847 250 768 c 0
 225 692 224 604 224 512 c 0
 224 420 225 332 250 256 c 0
 276 177 336 104 432 104 c 0
 528 104 588 177 614 256 c 0
 639 332 640 420 640 512 c 0
 640 604 639 692 614 768 c 0
 588 847 528 920 432 920 c 0xef
EndSplineSet
Layer: 2
Layer: 3
Layer: 4
EndChar
StartChar: uni0122
Encoding: 290 290 273
Width: 896
VWidth: 0
Flags: W
HStem: -528 120<384 483.008> -16 120<328.525 764.627> 648 120<512 768> 1304 120<328.747 799.818>
VStem: 0 128<339.164 1068.83> 512 128<-361.261 -128> 768 128<130.103 648>
LayerCount: 5
Back
Fore
SplineSet
515 1424 m 4
 638 1424 757 1395 866 1367 c 5
 866 1243 l 5
 753 1272 627 1304 515 1304 c 4
 311 1304 200 1187 156 1016 c 4
 131 919 128 813 128 704 c 4
 128 595 131 489 156 392 c 4
 200 221 311 104 515 104 c 4
 596 104 683 120 768 140 c 5
 768 648 l 5
 512 648 l 5
 512 768 l 5
 896 768 l 5
 896 49 l 5
 779 19 649 -16 515 -16 c 4
 420 -16 320 9 235 64 c 4
 134 129 63 237 31 364 c 4
 2 478 0 594 0 704 c 4
 0 814 2 930 31 1044 c 4
 64 1171 134 1278 235 1344 c 4
 321 1400 420 1424 515 1424 c 4
640 -233 m 2
 640 -293 640 -363 588 -433 c 0
 546 -490 474 -528 384 -528 c 1
 384 -408 l 1
 431 -408 463 -391 484 -363 c 0
 512 -326 512 -283 512 -233 c 2
 512 -128 l 1
 640 -128 l 1
 640 -233 l 2
EndSplineSet
Layer: 2
Layer: 3
Layer: 4
EndChar
StartChar: hcircumflex
Encoding: 293 293 223
Width: 896
VWidth: 0
Flags: W
HStem: 0 21G<128 256 640 768> 920 120<343.273 576.311> 1408 21G<72 256.585 639.415 824>
VStem: 128 128<0 857.984 912 1280> 640 128<0 854.076>
LayerCount: 5
Back
Fore
SplineSet
369 1664 m 1
 527 1664 l 1
 824 1408 l 1
 666 1408 l 1
 448 1572 l 1
 230 1408 l 1
 72 1408 l 1
 369 1664 l 1
468 1040 m 0
 568 1040 649 995 699 933 c 0
 768 847 768 751 768 657 c 2
 768 0 l 1
 640 0 l 1
 640 657 l 2
 640 744 640 806 595 858 c 0
 563 895 512 920 448 920 c 0
 384 920 333 895 301 858 c 0
 256 806 256 744 256 657 c 2
 256 0 l 1
 128 0 l 1
 128 1280 l 1
 256 1280 l 1
 256 912 l 1
 266 912 l 1
 315 989 392 1040 468 1040 c 0
EndSplineSet
Layer: 2
Layer: 3
Layer: 4
EndChar
StartChar: Itilde
Encoding: 296 296 226
Width: 896
VWidth: 0
Flags: W
HStem: 0 120<128 384 512 768> 1160 120<128 384 512 768> 1412 120<495.658 628.749> 1540 120<267.276 400.342>
VStem: 125 128<1433 1533.1> 384 128<120 1160> 643 128<1539.78 1639>
CounterMasks: 1 0e
LayerCount: 5
Back
Fore
SplineSet
320 1540 m 0
 269 1540 256 1481 253 1427 c 1
 125 1433 l 1
 129 1551 191 1660 320 1660 c 0
 466 1660 499 1532 576 1532 c 0
 627 1532 640 1591 643 1645 c 1
 771 1639 l 1
 768 1523 705 1412 576 1412 c 0
 430 1412 397 1540 320 1540 c 0
768 1280 m 1
 768 1160 l 1
 512 1160 l 1
 512 120 l 1
 768 120 l 1
 768 0 l 1
 128 0 l 1
 128 120 l 1
 384 120 l 1
 384 1160 l 1
 128 1160 l 1
 128 1280 l 1
 768 1280 l 1
EndSplineSet
Layer: 2
Layer: 3
Layer: 4
EndChar
StartChar: Imacron
Encoding: 298 298 228
Width: 896
VWidth: 0
Flags: W
HStem: 0 120<128 384 512 768> 1160 120<128 384 512 768> 1412 120<128 768>
VStem: 384 128<120 1160>
LayerCount: 5
Back
Fore
SplineSet
128 1532 m 1
 768 1532 l 1
 768 1412 l 1
 128 1412 l 1
 128 1532 l 1
768 1280 m 1
 768 1160 l 1
 512 1160 l 1
 512 120 l 1
 768 120 l 1
 768 0 l 1
 128 0 l 1
 128 120 l 1
 384 120 l 1
 384 1160 l 1
 128 1160 l 1
 128 1280 l 1
 768 1280 l 1
EndSplineSet
Layer: 2
Layer: 3
Layer: 4
EndChar
StartChar: Iogonek
Encoding: 302 302 232
Width: 896
VWidth: 0
Flags: W
HStem: -400 120<523.912 766.146> 0 120<128 384 512 640> 1288 120<128 384 512 768>
VStem: 384 128<-262.716 -135.229 120 1288>
LayerCount: 5
Back
Fore
SplineSet
639 -280 m 0
 685 -280 729 -270 768 -260 c 1
 768 -383 l 1
 728 -391 685 -400 639 -400 c 0
 525 -400 384 -325 384 -205 c 0
 384 -57 579 -63 640 0 c 1
 128 0 l 1
 128 120 l 1
 384 120 l 1
 384 1288 l 1
 128 1288 l 1
 128 1408 l 1
 768 1408 l 1
 768 1288 l 1
 512 1288 l 1
 512 120 l 1
 768 120 l 1
 768 0 l 1
 727 -91 512 -103 512 -198 c 0
 512 -258 582 -280 639 -280 c 0
EndSplineSet
Layer: 2
Layer: 3
Layer: 4
EndChar
StartChar: lacute
Encoding: 314 314 281
Width: 896
VWidth: 0
Flags: W
HStem: -16 120<540.725 766.027>
VStem: 384 128<149.787 1280>
LayerCount: 5
Back
Fore
SplineSet
360 1408 m 1
 498 1408 l 1
 664 1664 l 1
 526 1664 l 1
 360 1408 l 1
768 -2 m 1
 725 -9 680 -16 630 -16 c 0
 558 -16 499 9 457 52 c 0
 384 128 384 218 384 279 c 2
 384 1280 l 1
 512 1280 l 1
 512 279 l 2
 512 232 512 186 540 148 c 0
 560 121 591 104 640 104 c 0
 677 104 727 113 768 121 c 1
 768 -2 l 1
EndSplineSet
Layer: 2
Layer: 3
Layer: 4
EndChar
StartChar: Racute
Encoding: 340 340 257
Width: 896
VWidth: 0
Flags: W
HStem: 0 21G<0 128 665.584 809> 512 120<128 433> 1160 120<128 548.624>
VStem: 0 128<0 512 632 1160> 656 128<740.856 1052.75>
LayerCount: 5
Back
Fore
SplineSet
232 1408 m 1
 370 1408 l 1
 536 1664 l 1
 398 1664 l 1
 232 1408 l 1
321 632 m 2
 397 632 437 634 473 642 c 0
 581 666 656 762 656 896 c 0
 656 1030 581 1126 473 1150 c 0
 437 1158 397 1160 321 1160 c 2
 128 1160 l 1
 128 632 l 1
 321 632 l 2
128 0 m 1
 0 0 l 1
 0 1280 l 1
 321 1280 l 2
 398 1280 450 1280 505 1267 c 0
 664 1229 784 1092 784 896 c 0
 784 723 690 595 558 542 c 1
 809 0 l 1
 675 0 l 1
 433 514 l 1
 400 512 365 512 321 512 c 2
 128 512 l 1
 128 0 l 1
EndSplineSet
Layer: 2
Layer: 3
Layer: 4
EndChar
StartChar: Scircumflex
Encoding: 348 348 265
Width: 896
VWidth: 0
Flags: W
HStem: -16 120<131.035 639.354> 1176 120<253.816 715.308> 1408 21G<72 256.585 639.415 824>
VStem: 24 128<854.147 1088.04> 768 128<226.376 520.681>
LayerCount: 5
Back
Fore
SplineSet
442 1176 m 4
 251 1176 152 1080 152 972 c 4
 152 885 210 819 284 787 c 4
 394 740 537 772 664 721 c 4
 787 672 896 547 896 375 c 4
 896 192 758 -16 454 -16 c 4
 337 -16 191 11 64 39 c 5
 64 163 l 5
 191 133 340 104 454 104 c 4
 675 104 768 240 768 375 c 4
 768 493 698 575 616 609 c 4
 493 660 359 619 220 683 c 4
 112 733 24 837 24 972 c 4
 24 1127 160 1296 442 1296 c 4
 543 1296 683 1265 802 1233 c 5
 802 1108 l 5
 682 1142 541 1176 442 1176 c 4
369 1664 m 1
 527 1664 l 1
 824 1408 l 1
 666 1408 l 1
 448 1572 l 1
 230 1408 l 1
 72 1408 l 1
 369 1664 l 1
EndSplineSet
Layer: 2
Layer: 3
Layer: 4
EndChar
StartChar: uni0163
Encoding: 355 355 272
Width: 896
VWidth: 0
Flags: W
HStem: -400 120<258.225 483.489> 898 126<0 256 384 768>
VStem: 256 128<164.235 898 1024 1280> 512 128<-233.261 -3.58474>
LayerCount: 5
Back
Fore
SplineSet
640 -105 m 2
 640 -165 640 -235 588 -305 c 0
 546 -362 474 -400 384 -400 c 0
 349 -400 303 -393 256 -383 c 1
 256 -260 l 1
 304 -271 350 -280 384 -280 c 0
 431 -280 463 -263 484 -235 c 0
 512 -198 512 -155 512 -105 c 2
 512 -12 l 1
 431 0 367 40 324 92 c 0
 256 174 256 271 256 360 c 2
 256 898 l 1
 0 898 l 1
 0 1024 l 1
 256 1024 l 1
 256 1280 l 1
 384 1280 l 1
 384 1024 l 1
 768 1024 l 1
 768 898 l 1
 384 898 l 1
 384 370 l 2
 384 284 384 218 427 166 c 0
 459 128 509 104 576 104 c 0
 644 104 713 125 768 147 c 1
 768 19 l 1
 728 6 686 -5 640 -11 c 1
 640 -105 l 2
EndSplineSet
Layer: 2
Layer: 3
Layer: 4
EndChar
StartChar: Tcaron
Encoding: 356 356 288
Width: 896
VWidth: 0
Flags: W
HStem: 0 21G<384 512> 1160 120<0 384 512 896>
VStem: 384 128<0 1160>
LayerCount: 5
Back
Fore
SplineSet
369 1408 m 1
 527 1408 l 1
 824 1664 l 1
 666 1664 l 1
 448 1500 l 1
 230 1664 l 1
 72 1664 l 1
 369 1408 l 1
896 1280 m 1
 896 1160 l 1
 512 1160 l 1
 512 0 l 1
 384 0 l 1
 384 1160 l 1
 0 1160 l 1
 0 1280 l 1
 896 1280 l 1
EndSplineSet
Layer: 2
Layer: 3
Layer: 4
EndChar
StartChar: Zacute
Encoding: 377 377 216
Width: 896
VWidth: 0
Flags: W
HStem: 0 120<165 896> 1160 120<20 711>
LayerCount: 5
Back
Fore
SplineSet
360 1408 m 1
 498 1408 l 1
 664 1664 l 1
 526 1664 l 1
 360 1408 l 1
20 1160 m 1
 20 1280 l 1
 876 1280 l 1
 876 1190 l 1
 165 130 l 1
 165 120 l 1
 896 120 l 1
 896 0 l 1
 0 0 l 1
 0 92 l 1
 711 1150 l 1
 711 1160 l 1
 20 1160 l 1
EndSplineSet
Layer: 2
Layer: 3
Layer: 4
EndChar
StartChar: zcaron
Encoding: 382 382 221
Width: 896
VWidth: 0
Flags: W
HStem: 0 120<273 768> 904 120<148 603>
LayerCount: 5
Back
Fore
SplineSet
369 1152 m 1
 527 1152 l 1
 824 1408 l 1
 666 1408 l 1
 448 1244 l 1
 230 1408 l 1
 72 1408 l 1
 369 1152 l 1
148 904 m 1
 148 1024 l 1
 748 1024 l 1
 748 934 l 1
 273 130 l 1
 273 120 l 1
 768 120 l 1
 768 0 l 1
 128 0 l 1
 128 92 l 1
 603 894 l 1
 603 904 l 1
 148 904 l 1
EndSplineSet
Layer: 2
Layer: 3
Layer: 4
EndChar
StartChar: tildecomb
Encoding: 771 771 298
Width: 896
VWidth: 0
Flags: W
HStem: 1284 120<495.658 628.749> 1412 120<267.276 400.342>
VStem: 125 128<1305 1405.1> 643 128<1411.78 1511>
LayerCount: 5
Back
Fore
SplineSet
320 1412 m 0
 269 1412 256 1353 253 1299 c 1
 125 1305 l 1
 129 1423 191 1532 320 1532 c 0
 466 1532 499 1404 576 1404 c 0
 627 1404 640 1463 643 1517 c 1
 771 1511 l 1
 768 1395 705 1284 576 1284 c 0
 430 1284 397 1412 320 1412 c 0
EndSplineSet
Layer: 2
Layer: 3
Layer: 4
EndChar
StartChar: uni2713
Encoding: 10003 10003 100
Width: 896
VWidth: 0
Flags: W
HStem: 0 21G<208.5 495> 1004 20G<626 777>
VStem: -24 132<278.668 384> 648 129<770.312 1024>
LayerCount: 5
Back
SplineSet
860 1152 m 5
 819.13975737 733.772212096 728.105787404 341.231419735 447 46 c 5
 294.888755857 131.275753831 174.516253411 250.880246377 148 472 c 1029
EndSplineSet
Fore
SplineSet
648 1024 m 1
 777 1024 l 1
 730 644 629 282 361 0 c 1
 277 0 l 1
 140 79 21 194 -24 384 c 1
 108 384 l 1
 143 258 216 179 309 115 c 1
 517 362 604 677 648 1024 c 1
EndSplineSet
Layer: 2
SplineSet
84.400390625 465.296875 m 5
 211.599609375 478.703125 l 5
 233.096679688 299.434570312 317.2265625 200.848632812 434.55078125 124.75390625 c 5
 673.2265625 399.698242188 757.58984375 761.59765625 796.266601562 1157.47265625 c 5
 923.733398438 1146.52734375 l 5
 882.526367188 724.755859375 790.625976562 316.793945312 494.745117188 6.0439453125 c 5
 414.153320312 -5.4951171875 l 5
 251.287109375 85.810546875 113.3828125 223.619140625 84.400390625 465.296875 c 5
EndSplineSet
Layer: 3
Layer: 4
EndChar
